<?xml version="1.0" standalone="no"?>
<!DOCTYPE svg PUBLIC "-//W3C//DTD SVG 20010904//EN"
 "http://www.w3.org/TR/2001/REC-SVG-20010904/DTD/svg10.dtd">
<svg version="1.0" xmlns="http://www.w3.org/2000/svg"
 width="512.000000pt" height="512.000000pt" viewBox="0 0 512.000000 512.000000"
 preserveAspectRatio="xMidYMid meet">

<g transform="translate(0.000000,512.000000) scale(0.100000,-0.100000)"
fill="#00a8ff" stroke="none">
<path d="M1846 4059 c-387 -34 -756 -245 -1004 -574 -209 -278 -440 -1062
-469 -1591 -18 -333 155 -566 536 -720 171 -69 383 -115 531 -114 l55 1 105
130 c58 72 111 139 118 149 11 16 5 20 -65 45 -180 63 -358 172 -478 291 -42
42 -75 78 -72 80 2 2 44 -14 93 -37 186 -86 485 -191 710 -249 495 -128 939
-133 1369 -15 209 57 436 155 638 275 47 27 89 50 94 50 15 0 -114 -124 -189
-180 -89 -67 -258 -155 -375 -196 -46 -16 -83 -32 -83 -36 0 -4 46 -64 103
-134 56 -69 107 -133 114 -142 10 -12 30 -14 115 -9 321 18 696 164 866 337
156 158 212 343 183 600 -65 563 -264 1193 -462 1460 -228 309 -549 504 -929
565 -142 22 -171 20 -204 -14 l-27 -28 48 -13 c169 -46 487 -183 646 -279 82
-50 227 -151 216 -151 -4 0 -42 16 -85 36 -318 146 -660 243 -1019 291 -165
21 -619 24 -775 5 -358 -45 -698 -135 -973 -258 -144 -64 -135 -61 -118 -40
26 31 222 156 330 210 58 30 158 74 221 99 112 45 346 117 378 117 12 0 10 5
-8 25 -13 14 -28 24 -34 24 -6 -1 -51 -5 -100 -10z m99 -1325 c157 -40 265
-159 295 -321 46 -258 -195 -505 -443 -453 -242 50 -378 307 -288 542 50 130
207 242 346 247 17 1 58 -6 90 -15z m1441 -23 c89 -41 147 -99 192 -189 35
-72 37 -81 37 -171 -1 -120 -25 -188 -96 -265 -60 -66 -117 -101 -200 -122
-253 -65 -507 183 -460 448 21 119 86 218 182 275 116 69 231 77 345 24z"/>
</g>
</svg>
